<svg xmlns="http://www.w3.org/2000/svg" width="60" height="60" viewBox="0 0 60 60" fill="none"><path d="M58.4221 20.4078C31.2963 29.9979 24.1493 47.3795 24.1493 47.3795C24.1493 47.3795 18.9941 44.8617 27.3783 36.351C38.8326 24.7242 55.578 20.9212 58.4014 20.3481C57.9428 19.0044 57.3855 17.6766 56.7217 16.3748C49.1961 1.61775 31.1317 -4.24516 16.3738 3.27961C4.7735 9.19468 -1.32929 21.6206 0.24434 33.8344C0.938203 32.7186 1.79897 31.6465 2.84369 30.6424C4.8553 28.7112 7.33654 26.8961 10.3787 25.2699C31.0852 14.1985 49.1128 16.3446 49.1128 16.3446C28.9259 18.1917 9.29794 30.5928 8.66761 41.7574C8.49121 44.8808 9.39381 47.6501 10.6774 49.9541C13.3532 54.7581 18.065 58.058 23.4297 59.2657C30.0169 60.7485 37.1404 60.0274 43.626 56.7205C57.0626 49.8692 63.1244 34.2823 58.4221 20.4078ZM13.4518 42.3816C14.3731 34.5572 29.2041 18.9243 57.4151 18.1103C57.4151 18.1103 17.3201 24.1983 15.5863 51.8559C15.5863 51.8559 12.7426 48.4094 13.4518 42.3816Z" fill="#104B5A"></path></svg>